# xmcd
#
# Track frame offsets:
# 150
# 8531
# 26330
# 44546
# 62819
# 80343
# 83742
# 102563
# 124255
# 144166
# 164882
# 183400
# 202505
# 222304
# 241521
#
# Disc length: 3446 seconds
#
#
# Revision: 0
# Processed by: cddbd v1.5.1PL0 Copyright (c) Steve Scherf et al.
# Submitted via: FreeRIP 2.70 
#
DISCID=be0d740f
DTITLE=Orishas - A Lo Cubano
DYEAR=1900
DGENRE=Rap
TTITLE0=Intro
TTITLE1=Represent
TTITLE2=Atrevido
TTITLE3=A Lo Cubano
TTITLE4=Barrio
TTITLE5=S.O.L.A.R.
TTITLE6=1.9.9.9.
TTITLE7=Atención
TTITLE8=Mistica
TTITLE9=Canto Para Elewa Y Changó
TTITLE10=Madre
TTITLE11=Orishas LLegó
TTITLE12=537 C.U.B.A.
TTITLE13=Connexión
TTITLE14=Triunfo
EXTD=
EXTT0=
EXTT1=
EXTT2=
EXTT3=
EXTT4=
EXTT5=
EXTT6=
EXTT7=
EXTT8=
EXTT9=
EXTT10=
EXTT11=
EXTT12=
EXTT13=
EXTT14=
PLAYORDER=
